<svg width="130" height="128" viewBox="0 0 130 128" fill="none" xmlns="http://www.w3.org/2000/svg">
<rect y="64" width="130" height="64" fill="#D9D9D9"/>
<rect width="130" height="64" fill="#707070"/>
<path d="M54.3519 37.1193C53.7496 37.1193 53.2127 37.0085 52.7411 36.7869C52.2724 36.5653 51.9002 36.2599 51.6246 35.8707C51.3491 35.4815 51.2056 35.0355 51.1942 34.5327H52.984C53.0039 34.8707 53.146 35.1449 53.4102 35.3551C53.6744 35.5653 53.9883 35.6705 54.3519 35.6705C54.6417 35.6705 54.8974 35.6065 55.119 35.4787C55.3434 35.348 55.5181 35.1676 55.6431 34.9375C55.771 34.7045 55.8349 34.4375 55.8349 34.1364C55.8349 33.8295 55.7695 33.5597 55.6388 33.3267C55.511 33.0937 55.3335 32.9119 55.1062 32.7812C54.8789 32.6506 54.619 32.5838 54.3263 32.581C54.0707 32.581 53.8221 32.6335 53.5806 32.7386C53.342 32.8437 53.1559 32.9872 53.0224 33.169L51.3817 32.875L51.7951 28.2727H57.1303V29.7812H53.3164L53.0906 31.9673H53.1417C53.2951 31.7514 53.5266 31.5724 53.8363 31.4304C54.146 31.2884 54.4925 31.2173 54.8761 31.2173C55.4016 31.2173 55.8704 31.3409 56.2823 31.5881C56.6942 31.8352 57.0195 32.1747 57.2582 32.6065C57.4968 33.0355 57.6147 33.5298 57.6119 34.0895C57.6147 34.6776 57.4783 35.2003 57.2028 35.6577C56.93 36.1122 56.5479 36.4702 56.0565 36.7315C55.5678 36.9901 54.9996 37.1193 54.3519 37.1193ZM62.3207 37.1918C61.5877 37.1889 60.957 37.0085 60.4286 36.6506C59.9031 36.2926 59.4982 35.7741 59.2141 35.0952C58.9329 34.4162 58.7937 33.5994 58.7965 32.6449C58.7965 31.6932 58.9371 30.8821 59.2184 30.2116C59.5025 29.5412 59.9073 29.0312 60.4329 28.6818C60.9613 28.3295 61.5906 28.1534 62.3207 28.1534C63.0508 28.1534 63.6786 28.3295 64.2042 28.6818C64.7326 29.0341 65.1388 29.5455 65.4229 30.2159C65.707 30.8835 65.8477 31.6932 65.8448 32.6449C65.8448 33.6023 65.7028 34.4205 65.4187 35.0994C65.1374 35.7784 64.734 36.2969 64.2085 36.6548C63.6829 37.0128 63.0536 37.1918 62.3207 37.1918ZM62.3207 35.6619C62.8207 35.6619 63.2198 35.4105 63.5181 34.9077C63.8164 34.4048 63.9641 33.6506 63.9613 32.6449C63.9613 31.983 63.8931 31.4318 63.7567 30.9915C63.6232 30.5511 63.4329 30.2202 63.1857 29.9986C62.9414 29.777 62.6531 29.6662 62.3207 29.6662C61.8235 29.6662 61.4258 29.9148 61.1275 30.4119C60.8292 30.9091 60.6786 31.6534 60.6758 32.6449C60.6758 33.3153 60.7425 33.875 60.8761 34.3239C61.0124 34.7699 61.2042 35.1051 61.4513 35.3295C61.6985 35.5511 61.9883 35.6619 62.3207 35.6619ZM74.7148 35.3636V34.9034C74.7148 34.554 74.7887 34.233 74.9364 33.9403C75.087 33.6449 75.3043 33.4091 75.5884 33.233C75.8754 33.054 76.2248 32.9645 76.6367 32.9645C77.0543 32.9645 77.4052 33.0526 77.6893 33.2287C77.9762 33.4048 78.1921 33.6406 78.337 33.9361C78.4847 34.2287 78.5586 34.5511 78.5586 34.9034V35.3636C78.5586 35.7131 78.4847 36.0355 78.337 36.331C78.1893 36.6236 77.9719 36.858 77.685 37.0341C77.3981 37.2131 77.0487 37.3026 76.6367 37.3026C76.2191 37.3026 75.8683 37.2131 75.5842 37.0341C75.3001 36.858 75.0842 36.6236 74.9364 36.331C74.7887 36.0355 74.7148 35.7131 74.7148 35.3636ZM75.9549 34.9034V35.3636C75.9549 35.5653 76.0032 35.7557 76.0998 35.9347C76.1992 36.1136 76.3782 36.2031 76.6367 36.2031C76.8952 36.2031 77.0714 36.1151 77.1651 35.9389C77.2617 35.7628 77.31 35.571 77.31 35.3636V34.9034C77.31 34.696 77.2646 34.5028 77.1737 34.3239C77.0827 34.1449 76.9038 34.0554 76.6367 34.0554C76.381 34.0554 76.2035 34.1449 76.104 34.3239C76.0046 34.5028 75.9549 34.696 75.9549 34.9034ZM70.2362 30.3693V29.9091C70.2362 29.5568 70.3114 29.2344 70.462 28.9418C70.6126 28.6463 70.8299 28.4105 71.114 28.2344C71.4009 28.0582 71.7475 27.9702 72.1538 27.9702C72.5742 27.9702 72.9265 28.0582 73.2106 28.2344C73.4947 28.4105 73.7106 28.6463 73.8583 28.9418C74.006 29.2344 74.0799 29.5568 74.0799 29.9091V30.3693C74.0799 30.7216 74.0046 31.044 73.854 31.3366C73.7063 31.6293 73.489 31.8636 73.2021 32.0398C72.918 32.2131 72.5685 32.2997 72.1538 32.2997C71.739 32.2997 71.3881 32.2116 71.1012 32.0355C70.8171 31.8565 70.6012 31.6222 70.4535 31.3324C70.3086 31.0398 70.2362 30.7187 70.2362 30.3693ZM71.4847 29.9091V30.3693C71.4847 30.5767 71.533 30.7685 71.6296 30.9446C71.729 31.1207 71.9038 31.2088 72.1538 31.2088C72.4151 31.2088 72.5927 31.1207 72.6864 30.9446C72.783 30.7685 72.8313 30.5767 72.8313 30.3693V29.9091C72.8313 29.7017 72.7859 29.5085 72.695 29.3295C72.604 29.1506 72.4237 29.0611 72.1538 29.0611C71.9009 29.0611 71.7262 29.152 71.6296 29.3338C71.533 29.5156 71.4847 29.7074 71.4847 29.9091ZM70.7987 37L76.7987 28.2727H77.9151L71.9151 37H70.7987Z" fill="white"/>
<path d="M54.3519 101.119C53.7496 101.119 53.2127 101.009 52.7411 100.787C52.2724 100.565 51.9002 100.26 51.6246 99.8707C51.3491 99.4815 51.2056 99.0355 51.1942 98.5327H52.984C53.0039 98.8707 53.146 99.1449 53.4102 99.3551C53.6744 99.5653 53.9883 99.6705 54.3519 99.6705C54.6417 99.6705 54.8974 99.6065 55.119 99.4787C55.3434 99.348 55.5181 99.1676 55.6431 98.9375C55.771 98.7045 55.8349 98.4375 55.8349 98.1364C55.8349 97.8295 55.7695 97.5597 55.6388 97.3267C55.511 97.0937 55.3335 96.9119 55.1062 96.7812C54.8789 96.6506 54.619 96.5838 54.3263 96.581C54.0707 96.581 53.8221 96.6335 53.5806 96.7386C53.342 96.8437 53.1559 96.9872 53.0224 97.169L51.3817 96.875L51.7951 92.2727H57.1303V93.7812H53.3164L53.0906 95.9673H53.1417C53.2951 95.7514 53.5266 95.5724 53.8363 95.4304C54.146 95.2884 54.4925 95.2173 54.8761 95.2173C55.4016 95.2173 55.8704 95.3409 56.2823 95.5881C56.6942 95.8352 57.0195 96.1747 57.2582 96.6065C57.4968 97.0355 57.6147 97.5298 57.6119 98.0895C57.6147 98.6776 57.4783 99.2003 57.2028 99.6577C56.93 100.112 56.5479 100.47 56.0565 100.732C55.5678 100.99 54.9996 101.119 54.3519 101.119ZM62.3207 101.192C61.5877 101.189 60.957 101.009 60.4286 100.651C59.9031 100.293 59.4982 99.7741 59.2141 99.0952C58.9329 98.4162 58.7937 97.5994 58.7965 96.6449C58.7965 95.6932 58.9371 94.8821 59.2184 94.2116C59.5025 93.5412 59.9073 93.0312 60.4329 92.6818C60.9613 92.3295 61.5906 92.1534 62.3207 92.1534C63.0508 92.1534 63.6786 92.3295 64.2042 92.6818C64.7326 93.0341 65.1388 93.5455 65.4229 94.2159C65.707 94.8835 65.8477 95.6932 65.8448 96.6449C65.8448 97.6023 65.7028 98.4205 65.4187 99.0994C65.1374 99.7784 64.734 100.297 64.2085 100.655C63.6829 101.013 63.0536 101.192 62.3207 101.192ZM62.3207 99.6619C62.8207 99.6619 63.2198 99.4105 63.5181 98.9077C63.8164 98.4048 63.9641 97.6506 63.9613 96.6449C63.9613 95.983 63.8931 95.4318 63.7567 94.9915C63.6232 94.5511 63.4329 94.2202 63.1857 93.9986C62.9414 93.777 62.6531 93.6662 62.3207 93.6662C61.8235 93.6662 61.4258 93.9148 61.1275 94.4119C60.8292 94.9091 60.6786 95.6534 60.6758 96.6449C60.6758 97.3153 60.7425 97.875 60.8761 98.3239C61.0124 98.7699 61.2042 99.1051 61.4513 99.3295C61.6985 99.5511 61.9883 99.6619 62.3207 99.6619ZM74.7148 99.3636V98.9034C74.7148 98.554 74.7887 98.233 74.9364 97.9403C75.087 97.6449 75.3043 97.4091 75.5884 97.233C75.8754 97.054 76.2248 96.9645 76.6367 96.9645C77.0543 96.9645 77.4052 97.0526 77.6893 97.2287C77.9762 97.4048 78.1921 97.6406 78.337 97.9361C78.4847 98.2287 78.5586 98.5511 78.5586 98.9034V99.3636C78.5586 99.7131 78.4847 100.036 78.337 100.331C78.1893 100.624 77.9719 100.858 77.685 101.034C77.3981 101.213 77.0487 101.303 76.6367 101.303C76.2191 101.303 75.8683 101.213 75.5842 101.034C75.3001 100.858 75.0842 100.624 74.9364 100.331C74.7887 100.036 74.7148 99.7131 74.7148 99.3636ZM75.9549 98.9034V99.3636C75.9549 99.5653 76.0032 99.7557 76.0998 99.9347C76.1992 100.114 76.3782 100.203 76.6367 100.203C76.8952 100.203 77.0714 100.115 77.1651 99.9389C77.2617 99.7628 77.31 99.571 77.31 99.3636V98.9034C77.31 98.696 77.2646 98.5028 77.1737 98.3239C77.0827 98.1449 76.9038 98.0554 76.6367 98.0554C76.381 98.0554 76.2035 98.1449 76.104 98.3239C76.0046 98.5028 75.9549 98.696 75.9549 98.9034ZM70.2362 94.3693V93.9091C70.2362 93.5568 70.3114 93.2344 70.462 92.9418C70.6126 92.6463 70.8299 92.4105 71.114 92.2344C71.4009 92.0582 71.7475 91.9702 72.1538 91.9702C72.5742 91.9702 72.9265 92.0582 73.2106 92.2344C73.4947 92.4105 73.7106 92.6463 73.8583 92.9418C74.006 93.2344 74.0799 93.5568 74.0799 93.9091V94.3693C74.0799 94.7216 74.0046 95.044 73.854 95.3366C73.7063 95.6293 73.489 95.8636 73.2021 96.0398C72.918 96.2131 72.5685 96.2997 72.1538 96.2997C71.739 96.2997 71.3881 96.2116 71.1012 96.0355C70.8171 95.8565 70.6012 95.6222 70.4535 95.3324C70.3086 95.0398 70.2362 94.7187 70.2362 94.3693ZM71.4847 93.9091V94.3693C71.4847 94.5767 71.533 94.7685 71.6296 94.9446C71.729 95.1207 71.9038 95.2088 72.1538 95.2088C72.4151 95.2088 72.5927 95.1207 72.6864 94.9446C72.783 94.7685 72.8313 94.5767 72.8313 94.3693V93.9091C72.8313 93.7017 72.7859 93.5085 72.695 93.3295C72.604 93.1506 72.4237 93.0611 72.1538 93.0611C71.9009 93.0611 71.7262 93.152 71.6296 93.3338C71.533 93.5156 71.4847 93.7074 71.4847 93.9091ZM70.7987 101L76.7987 92.2727H77.9151L71.9151 101H70.7987Z" fill="black"/>
</svg>
